<?xml version="1.0" encoding="UTF-8"?>
<svg width="270px" height="80px" viewBox="0 0 270 80" version="1.1" xmlns="http://www.w3.org/2000/svg" xmlns:xlink="http://www.w3.org/1999/xlink">
    <!-- Generator: Sketch 49.3 (51167) - http://www.bohemiancoding.com/sketch -->
    <title>logo</title>
    <desc>Created with Sketch.</desc>
    <defs>
        <polygon id="path-1" points="179 53 179 69 185 69 185 51 184 51 183 51"></polygon>
        <polygon id="path-2" points="92 53 92 69 98 69 98 51 97 51 96 51"></polygon>
    </defs>
    <g id="logo" stroke="none" stroke-width="1" fill="none" fill-rule="evenodd">
        <g id="text" transform="translate(4.000000, -1.000000)">
            <text id="Homotopy" font-family="TamilMN-Bold, Tamil MN" font-size="36" font-weight="bold" fill="#000000">
                <tspan x="0.291015625" y="32">Homotopy</tspan>
            </text>
            <text id="Continuation.jl" font-family="TamilMN-Bold, Tamil MN" font-size="36" font-weight="bold" fill="#000000">
                <tspan x="0" y="69">Cont</tspan>
                <tspan x="88.5058594" y="69" fill-opacity="0">i</tspan>
                <tspan x="99.4570312" y="69">nuat</tspan>
                <tspan x="177.029297" y="69" fill-opacity="0">i</tspan>
                <tspan x="187.980469" y="69">on.</tspan>
                <tspan x="240.134766" y="69" fill-opacity="0">j</tspan>
                <tspan x="251.296875" y="69">l</tspan>
            </text>
            <g id="Path-3">
                <use fill="#000000" fill-rule="evenodd" xlink:href="#path-1"></use>
                <path stroke="#000000" stroke-width="1" d="M179.5,53.309017 L179.5,68.5 L184.5,68.5 L184.5,51.5 L183.118034,51.5 L179.5,53.309017 Z"></path>
            </g>
            <g id="Path-3-Copy">
                <use fill="#000000" fill-rule="evenodd" xlink:href="#path-2"></use>
                <path stroke="#000000" stroke-width="1" d="M92.5,53.309017 L92.5,68.5 L97.5,68.5 L97.5,51.5 L96.118034,51.5 L92.5,53.309017 Z"></path>
            </g>
            <path d="M243,53 L243,74 C242.978816,74.4515057 242.645483,74.7848391 242,75 C241.031776,75.3227414 240.604866,74.9032437 240,74.5 C239.596756,74.2311709 239.096756,73.7311709 238.5,73 L236,75 C236.692113,75.9596514 237.692113,76.6263181 239,77 C240.96183,77.5605229 241.474059,77.5064852 243.5,77 C245.525941,76.4935148 246.377562,75.4979507 247,75 C247.414959,74.6680329 247.748292,74.0013662 248,73 L248,51 L246,51 L243,53 Z" id="Path-4" stroke="#000000" fill="#000000"></path>
        </g>
        <g id="3dots" transform="translate(244.500000, 37.000000)">
            <circle id="red" stroke="#CC3C33" fill="#D9655F" cx="2" cy="8" r="2"></circle>
            <circle id="purple" stroke="#9558B2" fill="#AB7BC2" cx="5.5" cy="2" r="2"></circle>
            <circle id="green" stroke="#369826" fill="#69AC57" cx="9" cy="8" r="2"></circle>
        </g>
        <g id="path" transform="translate(97.000000, 39.000000)" fill="#6A83E0" stroke="#4063D8">
            <circle id="Oval-2-Copy" opacity="0.9" cx="81" cy="3.5" r="2"></circle>
            <circle id="Oval-2-Copy-5" opacity="0.5" cx="42" cy="6" r="2"></circle>
            <circle id="Oval-2-Copy-7" opacity="0.6" cx="52" cy="4" r="2"></circle>
            <circle id="Oval-2-Copy-8" opacity="0.7" cx="62" cy="2" r="2"></circle>
            <circle id="Oval-2-Copy-9" opacity="0.8" cx="72" cy="2" r="2"></circle>
            <circle id="Oval-2-Copy-6" opacity="0.4" cx="31" cy="7" r="2"></circle>
            <circle id="Oval-2-Copy-10" opacity="0.3" cx="20" cy="5" r="2"></circle>
            <circle id="Oval-2-Copy-3" cx="89.5" cy="6" r="2"></circle>
            <circle id="Oval-2-Copy-11" opacity="0.2" cx="11" cy="4" r="2"></circle>
            <circle id="Oval-2-Copy-12" opacity="0.2" cx="2" cy="6" r="2"></circle>
        </g>
    </g>
</svg>